<svg width="10" height="10" viewBox="0 0 10 10" fill="none" xmlns="http://www.w3.org/2000/svg">
<path d="M9.49697 10H0.50303C0.432373 10 0.362511 9.9852 0.297992 9.95657C0.233474 9.92794 0.175747 9.88612 0.12857 9.83383C0.0813929 9.78155 0.0458248 9.71998 0.0241821 9.65312C0.00253939 9.58627 -0.0046925 9.51563 0.00295724 9.44581C0.139572 8.22342 0.724863 7.09404 1.64682 6.27378C2.56879 5.45352 3.76267 5 5 5C6.23733 5 7.43121 5.45352 8.35318 6.27378C9.27514 7.09404 9.86043 8.22342 9.99704 9.44581C10.0047 9.51563 9.99746 9.58627 9.97582 9.65312C9.95418 9.71998 9.91861 9.78155 9.87143 9.83383C9.82425 9.88612 9.76653 9.92794 9.70201 9.95657C9.63749 9.9852 9.56763 10 9.49697 10Z" fill="#C7C9C8"/>
<path d="M5.00025 6C4.4069 6 3.82688 5.82405 3.33353 5.49441C2.84019 5.16477 2.45567 4.69623 2.22861 4.14805C2.00154 3.59987 1.94213 2.99667 2.05789 2.41473C2.17365 1.83279 2.45937 1.29824 2.87893 0.878681C3.29848 0.459123 3.83303 0.173401 4.41497 0.0576455C4.99692 -0.0581102 5.60012 0.00129986 6.1483 0.228363C6.69647 0.455426 7.16501 0.839943 7.49465 1.33329C7.8243 1.82664 8.00025 2.40666 8.00025 3C7.99938 3.79538 7.68303 4.55794 7.12061 5.12036C6.55819 5.68278 5.79563 5.99913 5.00025 6Z" fill="#C7C9C8"/>
</svg>
